<svg xmlns="http://www.w3.org/2000/svg" xmlns:xlink="http://www.w3.org/1999/xlink" viewBox="0 0 95.481 64.15365158506182" height="64.15365158506182" width="95.481" data-background-color="#ffffff" preserveAspectRatio="xMidYMid meet" id="tight-bounds"><g><svg viewBox="0 0 95.481 64.15365158506182" height="64.15365158506182" width="95.481"><g><svg viewBox="0 0 95.481 64.15365158506182" height="64.15365158506182" width="95.481"><g id="textblocktransform"><svg viewBox="0 0 95.481 64.15365158506182" height="64.15365158506182" width="95.481" id="textblock"><g><svg viewBox="0 0 95.481 64.15365158506182" height="64.15365158506182" width="95.481"><g><svg viewBox="0 0 95.481 64.15365158506182" height="64.15365158506182" width="95.481"><g><svg xmlns="http://www.w3.org/2000/svg" xml:space="preserve" viewBox="-345.7650146484375 275.2789306640625 99.42181396484375 66.80148315429688" x="0" y="0" height="64.15365158506182" width="95.481" class="icon-icon-0" data-fill-palette-color="accent" id="icon-0"><path d="M-251.339 331.136c-1.075-0.089-10.585-1.174-13.146-12.066-1.193-5.07-0.778-11.961-0.771-12.072 0.029-0.447-0.054-5.186-0.681-7.358-2.921-10.141-18.188-15.871-36.045-12.331-3.322 0.658-6.707 1.383-9.986 2.229 0.362 3.394 0.476 9.926-3.161 14.244-3.077 3.656-9.528 4.764-10.254 4.879a2.148 2.148 0 0 1-2.454-1.786 2.144 2.144 0 0 1 1.784-2.454c1.539-0.249 5.903-1.341 7.642-3.406 2.163-2.569 2.434-6.594 2.297-9.446-0.092-1.936-0.047-16.29-0.047-16.29l-8.137 6.194a17.2 17.2 0 0 0-6.114-1.112c-2.109 0-4.118 0.373-5.947 1.046l-7.168-6.016v11.439c-1.411 2.03-2.238 4.402-2.238 6.952 0 5.992 4.494 11.062 10.695 12.788-0.211 2.04 0.017 4.297 0.793 6.817 1.057 3.43 3.927 6.252 7.952 8.349v15.042a5.302 5.302 0 0 0 10.605 0v-11.63c5.116 0.897 10.841 1.051 16.618 0.36l-8.898 7.167a5.303 5.303 0 0 0 6.652 8.259l15.905-12.812c0.08-0.063 0.138-0.138 0.212-0.207v8.78a5.302 5.302 0 0 0 10.604 0V322.9c4.018 14.116 16.391 18.641 22.565 19.025q0.173 0.012 0.344 0.012c2.811 0 5.155-2.177 5.361-5.021 0.211-2.958-2.025-5.537-4.982-5.78" fill="#f4eb5c" data-fill-palette-color="accent"/></svg>


</g></svg></g></svg></g></svg></g></svg></g><g/></svg></g><defs/></svg>